# xmcd
#
# Track frame offsets: 
#        150
#        18270
#        35885
#        50892
#        66672
#        84488
#        101172
#        122237
#        138156
#        155184
#        170431
#        190216
#        208273
#        228345
#        239820
#        254027
#        269544
#        284566
#
# Disc length: 4032 seconds
#
# Revision: 2
# Processed by: cddbd v1.5.2PL0 Copyright (c) Steve Scherf et al.
# Submitted via: ExactAudioCopy v1.0b3
#
DISCID=2a0fbe12
DTITLE=Various Artist - Cruisin' - Music For the Road
DYEAR=2013
DGENRE=Other
TTITLE0=Coldplay - Viva La Vida
TTITLE1=Katy Perry feat. Snoop Dogg - California Gurls
TTITLE2=Kylie Minogue - All the Lovers
TTITLE3=Sunrise Avenue - Hollywood Hills
TTITLE4=Mano Diao - Down in the Past
TTITLE5=Lenny Kravitz - Fly Away
TTITLE6=Iggy Pop - The Passenger
TTITLE7=Chumbawamba - Tubthumping
TTITLE8=Soulsister - The Way to Your Heart
TTITLE9=Lily Allen - Not Fair (Clean Radio Edit)
TTITLE10=Roxette - Joyride
TTITLE11=Pet Shop Boys - Se a Vida é (That's the Way Life Is) (2001 Re
TTITLE11=master)
TTITLE12=Huey Lewis and The News - Stuck With You
TTITLE13=Beach Boys - Wouldn't It Be Nice
TTITLE14=Eliza Doolittle - Pack Up
TTITLE15=Tom Gaebel - It's a Good Life
TTITLE16=Norah Jones - Sunrise
TTITLE17=Robbie Williams - The Road to Mandalay
EXTD=
EXTT0=
EXTT1=
EXTT2=
EXTT3=
EXTT4=
EXTT5=
EXTT6=
EXTT7=
EXTT8=
EXTT9=
EXTT10=
EXTT11=
EXTT12=
EXTT13=
EXTT14=
EXTT15=
EXTT16=
EXTT17=
PLAYORDER=
